<?xml version="1.0" standalone="no"?>
<!DOCTYPE svg PUBLIC "-//W3C//DTD SVG 20010904//EN"
 "http://www.w3.org/TR/2001/REC-SVG-20010904/DTD/svg10.dtd">
<svg version="1.0" xmlns="http://www.w3.org/2000/svg"
 width="2807.000000pt" height="1928.000000pt" viewBox="0 0 2807.000000 1928.000000"
 preserveAspectRatio="xMidYMid meet">

<g transform="translate(0.000000,1928.000000) scale(0.100000,-0.100000)"
fill="#000000" stroke="none">
<path d="M15395 11447 c-1617 -2894 -2969 -5315 -3006 -5380 l-66 -117 -2368
2775 c-2000 2344 -2370 2773 -2379 2758 -5 -10 -1132 -1978 -2504 -4373 -1371
-2395 -2494 -4359 -2495 -4363 -2 -9 130 -84 136 -77 2 3 1100 1920 2440 4260
1340 2341 2443 4264 2450 4274 12 17 233 -239 2376 -2750 1299 -1523 2365
-2770 2369 -2772 4 -1 1350 2403 2992 5343 1642 2939 2987 5344 2990 5345 3 0
1586 -3080 3519 -6845 1933 -3765 3517 -6848 3521 -6850 4 -2 37 12 74 31 l67
36 -69 131 c-38 73 -1650 3212 -3582 6977 -1932 3765 -3516 6848 -3519 6852
-4 4 -1329 -2360 -2946 -5255z"/>
<path d="M6147 6302 c-10 -10 -17 -27 -17 -38 0 -10 43 -86 95 -169 l95 -149
-132 -27 c-176 -35 -296 -76 -453 -154 -167 -84 -290 -172 -438 -315 -188
-181 -333 -373 -493 -655 -173 -305 -267 -567 -309 -856 -23 -153 -32 -552
-15 -613 16 -57 68 -118 123 -145 34 -17 62 -21 134 -21 l90 0 6 143 c4 101
11 163 27 216 81 284 297 500 585 587 79 23 107 27 225 27 117 0 147 -4 223
-27 254 -76 442 -239 549 -473 40 -88 68 -214 68 -304 0 -42 3 -97 6 -123 l7
-46 1667 0 1667 0 6 133 c8 189 46 315 134 451 123 190 318 332 530 387 92 23
256 25 354 5 273 -58 528 -277 630 -541 40 -103 58 -205 59 -332 l0 -103 208
0 c237 0 259 6 325 79 44 48 57 78 57 127 0 20 -50 286 -110 592 -91 456 -116
568 -141 619 -33 68 -81 115 -144 138 -22 9 -388 87 -814 175 l-773 159 -192
144 c-105 79 -341 258 -524 396 -319 240 -405 296 -532 345 -55 21 -61 21
-1274 23 l-1218 3 -105 167 c-58 93 -112 174 -121 181 -22 17 -46 15 -65 -6z
m1023 -470 c0 -10 -25 -344 -55 -743 -69 -906 -73 -996 -51 -1109 43 -209 157
-328 361 -377 60 -14 162 -17 725 -20 439 -3 664 -1 682 6 35 13 47 54 23 81
-17 18 -43 19 -694 23 -727 3 -713 2 -826 57 -58 28 -118 97 -147 169 -38 93
-31 343 30 1141 29 366 55 693 58 728 l6 62 772 0 c861 0 813 4 956 -71 41
-21 120 -73 175 -115 342 -261 939 -706 958 -714 12 -6 310 -69 662 -140 352
-72 649 -135 661 -140 19 -7 22 -19 27 -112 9 -181 81 -347 185 -425 52 -40
86 -42 108 -8 21 32 11 59 -30 83 -40 24 -92 96 -119 166 -21 56 -46 181 -47
235 l0 34 46 -7 c106 -14 163 -47 186 -106 8 -21 168 -811 168 -832 0 -5 -47
-8 -105 -8 -98 0 -106 -1 -119 -23 -20 -29 -11 -62 20 -76 14 -6 71 -11 128
-11 l103 0 17 -82 c20 -103 20 -131 1 -168 -28 -55 -77 -70 -224 -70 l-129 0
-7 83 c-21 253 -104 436 -279 615 -130 134 -292 230 -466 276 -100 27 -269 32
-369 12 -190 -39 -348 -119 -486 -248 -103 -96 -166 -181 -225 -303 -60 -122
-80 -200 -89 -330 l-6 -100 -1567 -3 -1568 -2 0 54 c0 29 -7 91 -15 137 -37
214 -128 384 -286 535 -108 102 -223 169 -379 219 -103 33 -303 45 -426 25
-431 -69 -756 -433 -790 -883 l-7 -89 -29 6 c-46 9 -84 42 -102 86 -17 42 -23
195 -8 216 4 6 25 14 47 17 91 15 86 107 -6 107 -37 0 -39 1 -39 33 0 50 27
252 44 338 33 157 82 300 164 472 l55 118 136 -3 136 -3 0 -52 c-1 -37 -7 -61
-21 -80 -29 -40 -109 -80 -188 -95 -81 -15 -107 -41 -88 -84 17 -35 33 -38
114 -20 187 42 282 131 296 278 l5 58 313 0 c312 0 313 0 328 22 21 30 20 44
-4 68 -19 19 -33 20 -490 20 -258 0 -470 2 -470 5 0 8 81 137 151 240 201 297
462 535 734 672 79 40 222 91 327 118 185 46 274 53 676 54 354 1 372 0 372
-17z"/>
<path d="M6670 5709 c-629 -47 -1117 -256 -1259 -540 -48 -96 -37 -169 32
-206 30 -17 80 -18 697 -18 l665 0 50 25 c92 46 116 135 157 584 12 132 11
139 -7 152 -21 16 -144 17 -335 3z m235 -161 c-4 -35 -17 -148 -30 -252 -22
-175 -26 -191 -50 -215 l-25 -26 -633 -3 c-347 -1 -643 0 -656 3 -20 5 -22 10
-17 37 14 73 128 186 271 270 239 142 663 241 1053 247 l93 1 -6 -62z"/>
<path d="M7524 5691 c-46 -21 -109 -89 -123 -135 -16 -48 -41 -406 -32 -446
18 -81 88 -160 158 -179 25 -7 326 -11 913 -11 830 0 877 1 915 19 106 49 157
186 108 289 -35 74 -180 210 -366 341 -103 73 -191 117 -266 131 -33 6 -288
10 -660 10 -567 0 -609 -2 -647 -19z m1245 -91 c44 -6 100 -22 135 -39 130
-61 418 -295 460 -373 15 -28 16 -40 7 -75 -7 -24 -23 -51 -38 -62 -25 -21
-33 -21 -903 -21 -875 0 -877 0 -904 21 -56 44 -59 64 -46 253 7 94 16 187 21
207 10 41 44 76 85 89 40 12 1092 12 1183 0z"/>
<path d="M9712 4858 c-17 -17 -15 -36 13 -173 39 -191 58 -382 52 -527 -5
-112 -3 -128 12 -142 26 -24 58 -20 78 11 26 39 23 307 -6 503 -25 164 -56
307 -72 327 -14 16 -61 17 -77 1z"/>
<path d="M7377 4742 c-23 -25 -22 -69 2 -82 13 -6 137 -10 335 -10 341 0 346
1 346 55 0 52 -18 55 -356 55 -288 0 -312 -1 -327 -18z"/>
<path d="M22095 4493 c-93 -13 -187 -61 -229 -116 -47 -62 -60 -105 -60 -209
l-1 -98 -77 0 -78 0 0 -80 0 -80 85 0 85 0 0 -423 c0 -361 -2 -430 -16 -470
-19 -55 -89 -137 -144 -168 l-38 -22 41 -68 c23 -38 46 -69 51 -69 21 0 139
74 190 121 64 58 108 141 125 233 7 37 11 216 11 463 l0 403 99 0 99 0 11 63
c18 104 27 96 -106 99 l-118 3 -9 42 c-5 23 -5 63 -1 89 14 93 105 145 190
110 21 -9 41 -16 45 -16 4 0 27 25 50 56 41 54 41 56 23 76 -38 43 -148 73
-228 61z"/>
<path d="M12970 4383 c0 -15 -16 -291 -35 -613 -19 -322 -35 -602 -35 -622 l0
-38 104 0 103 0 6 118 c4 64 9 214 12 332 6 235 15 373 23 350 22 -70 113
-292 214 -522 l122 -278 80 0 81 0 116 273 c64 149 138 332 165 406 l49 133
17 -373 c9 -206 17 -389 17 -406 l1 -33 105 0 105 0 -1 33 c0 17 -17 309 -37
647 l-37 615 -89 0 -89 0 -187 -460 c-238 -586 -220 -545 -230 -520 -5 11 -96
236 -203 500 l-194 480 -92 3 -91 3 0 -28z"/>
<path d="M17630 4325 l0 -85 165 0 165 0 0 -565 0 -565 110 0 110 0 0 565 0
565 164 0 163 0 6 43 c3 23 9 61 13 85 l7 42 -452 0 -451 0 0 -85z"/>
<path d="M16551 4310 c-40 -10 -75 -21 -77 -23 -3 -2 -11 -42 -20 -88 -8 -46
-17 -94 -20 -106 -4 -22 -9 -23 -89 -23 l-85 0 0 -80 0 -80 85 0 85 0 0 -312
c0 -199 4 -328 11 -353 7 -23 28 -57 53 -81 36 -37 49 -43 112 -53 54 -9 91
-10 150 -1 89 12 151 27 158 38 2 4 -3 38 -12 75 -11 45 -20 66 -28 63 -35
-13 -139 -26 -165 -21 -60 13 -59 8 -59 341 l0 304 103 0 104 0 11 64 c19 104
28 96 -103 96 l-115 0 0 130 c0 98 -3 130 -12 129 -7 -1 -46 -9 -87 -19z"/>
<path d="M14675 4077 c-208 -54 -325 -233 -325 -502 0 -286 116 -447 345 -477
152 -21 280 18 375 112 90 91 133 217 133 395 -1 238 -85 397 -241 455 -71 27
-215 35 -287 17z m172 -166 c81 -37 122 -148 123 -327 0 -248 -68 -352 -218
-329 -64 10 -124 69 -145 145 -23 81 -30 203 -17 303 11 91 21 123 53 171 38
55 127 71 204 37z"/>
<path d="M17290 4080 c-76 -16 -185 -76 -229 -126 -100 -114 -136 -230 -129
-418 8 -190 57 -304 164 -374 72 -48 114 -57 259 -56 118 0 138 3 225 32 52
18 101 36 108 40 19 13 -37 144 -58 136 -68 -30 -185 -56 -250 -58 -65 -1 -81
3 -122 26 -49 29 -81 80 -93 149 l-7 36 98 12 c325 40 502 211 440 425 -21 72
-81 135 -152 160 -58 21 -191 29 -254 16z m140 -155 c40 -21 60 -53 60 -97 0
-102 -71 -170 -212 -203 -35 -8 -78 -15 -96 -15 l-33 0 7 53 c21 181 91 274
207 276 21 1 51 -6 67 -14z"/>
<path d="M21187 4071 c-133 -44 -207 -134 -207 -252 0 -134 55 -208 208 -280
147 -68 154 -72 178 -108 26 -38 32 -98 13 -133 -13 -25 -68 -48 -113 -48 -47
0 -145 35 -248 88 -7 3 -82 -148 -76 -153 2 -2 22 -12 44 -23 75 -38 202 -66
299 -66 78 -1 98 3 150 27 119 55 175 140 175 262 -1 131 -54 195 -229 277
-111 52 -144 75 -167 120 -16 31 -18 81 -4 108 11 20 60 40 100 40 23 0 126
-28 211 -56 11 -4 22 12 44 66 34 84 38 78 -80 116 -109 35 -221 40 -298 15z"/>
<path d="M22613 4076 c-170 -43 -290 -168 -334 -346 -18 -71 -18 -259 0 -330
38 -153 126 -251 258 -285 75 -20 206 -19 296 1 80 18 197 62 197 74 0 4 -7
25 -16 46 -9 22 -20 49 -25 61 l-8 22 -73 -25 c-161 -55 -275 -52 -343 7 -35
31 -49 59 -63 126 l-9 41 71 7 c220 20 400 114 456 238 24 52 26 147 5 208
-20 57 -75 112 -137 139 -63 27 -201 35 -275 16z m174 -170 c33 -30 37 -39 37
-84 0 -73 -35 -122 -116 -161 -60 -30 -143 -51 -196 -51 -25 0 -25 1 -19 63
17 171 93 266 215 267 34 0 49 -6 79 -34z"/>
<path d="M15787 4070 c-89 -23 -177 -88 -224 -167 l-19 -32 -23 69 c-13 38
-36 83 -50 100 l-26 31 -80 -32 c-44 -18 -81 -33 -82 -34 -1 0 9 -23 23 -51
51 -104 64 -209 64 -541 l0 -303 109 0 110 0 3 293 c3 290 3 292 29 347 34 73
74 119 124 141 76 35 149 17 182 -44 16 -29 18 -70 21 -384 l3 -353 104 0 105
0 0 370 c0 401 -2 418 -58 502 -41 62 -97 90 -195 94 -45 2 -99 -1 -120 -6z"/>
<path d="M18824 4062 c-77 -27 -120 -66 -161 -146 l-20 -40 -13 40 c-16 50
-48 114 -67 136 -16 18 -20 17 -147 -36 l-36 -15 19 -33 c11 -18 30 -67 42
-108 21 -70 23 -98 27 -412 l3 -338 109 0 109 0 3 298 c3 297 3 298 29 347 34
68 95 110 157 110 26 0 59 -4 73 -8 25 -8 26 -7 56 97 l30 104 -43 11 c-60 15
-111 13 -170 -7z"/>
<path d="M19328 4061 c-153 -49 -254 -158 -304 -326 -21 -73 -23 -242 -5 -330
29 -130 98 -232 187 -275 62 -31 182 -38 258 -16 70 21 137 82 170 158 l23 52
7 -44 c8 -52 49 -140 76 -165 18 -17 22 -16 97 15 43 18 79 33 81 35 2 1 -6
18 -18 37 -11 19 -30 70 -41 114 -20 71 -22 111 -27 395 l-4 316 -52 12 c-192
42 -358 50 -448 22z m265 -146 c15 -6 17 -25 17 -189 0 -196 -10 -256 -54
-344 -31 -61 -94 -119 -140 -127 -120 -23 -176 76 -176 310 0 220 45 316 168
356 29 9 156 5 185 -6z"/>
<path d="M20415 4059 c-76 -24 -144 -74 -181 -133 -31 -48 -44 -57 -44 -28 0
19 -50 126 -72 155 -13 18 -17 17 -93 -13 -44 -18 -82 -33 -84 -35 -2 -2 6
-23 18 -47 11 -24 30 -80 42 -123 19 -72 22 -114 26 -402 l5 -323 103 0 103 0
4 283 c4 266 5 285 27 341 52 130 174 206 265 164 14 -6 35 -30 46 -53 19 -39
20 -61 20 -388 l0 -347 111 0 110 0 -3 378 c-3 340 -6 382 -23 427 -26 69 -97
138 -157 153 -68 17 -154 14 -223 -9z"/>
<path d="M23555 4062 c-28 -10 -65 -27 -82 -40 -33 -24 -93 -106 -93 -129 0
-8 -4 -11 -10 -8 -5 3 -10 14 -10 24 0 22 -56 135 -74 150 -10 8 -33 3 -92
-21 -43 -17 -80 -32 -82 -34 -2 -1 7 -22 19 -46 55 -107 62 -158 66 -515 l5
-333 109 0 109 0 0 293 c0 285 1 293 24 342 43 94 127 140 213 117 25 -7 47
-11 48 -10 4 5 55 186 55 197 0 13 -65 31 -115 31 -22 -1 -63 -8 -90 -18z"/>
<path d="M5565 4009 c-249 -36 -444 -181 -556 -414 -54 -111 -72 -204 -66
-340 7 -183 68 -328 195 -466 l64 -69 -355 0 c-310 0 -358 -2 -371 -16 -20
-20 -20 -48 0 -68 14 -14 69 -16 455 -16 418 0 443 -1 501 -21 144 -48 321
-48 463 1 54 19 84 20 421 20 l364 0 16 25 c15 23 15 27 0 50 l-16 25 -275 0
c-151 0 -275 2 -275 4 0 3 22 27 49 55 106 109 179 258 201 410 58 394 -225
765 -624 820 -87 12 -106 12 -191 0z m220 -114 c232 -49 426 -237 479 -465 33
-138 11 -305 -56 -433 -47 -90 -174 -214 -265 -260 -284 -141 -617 -54 -792
208 -164 245 -133 571 74 778 153 153 354 215 560 172z"/>
<path d="M5560 3641 c-94 -29 -180 -104 -226 -197 -26 -53 -29 -69 -29 -154 0
-88 3 -101 33 -162 52 -106 140 -174 255 -198 75 -15 152 -5 226 30 78 37 136
96 174 178 28 59 32 77 31 153 0 77 -4 94 -32 152 -41 82 -120 157 -197 186
-58 22 -182 28 -235 12z m176 -106 c102 -30 184 -136 184 -239 0 -71 -18 -121
-63 -172 -72 -82 -166 -110 -268 -81 -182 54 -243 291 -110 425 75 74 159 96
257 67z"/>
<path d="M5525 3416 c-19 -28 -12 -50 28 -93 l30 -32 -32 -36 c-36 -42 -42
-89 -12 -105 32 -17 49 -12 89 25 l39 34 33 -34 c37 -38 69 -44 94 -19 25 25
19 57 -19 94 l-34 33 34 40 c39 45 44 76 17 100 -28 25 -48 21 -92 -20 l-41
-36 -37 36 c-44 43 -75 47 -97 13z"/>
<path d="M10608 4009 c-274 -37 -512 -244 -596 -520 -74 -241 -3 -523 178
-707 28 -28 50 -53 50 -56 0 -3 -123 -6 -273 -6 -292 0 -297 -1 -297 -50 0
-14 5 -31 12 -38 9 -9 106 -12 373 -12 331 0 367 -2 418 -19 140 -49 305 -51
445 -6 l77 25 651 0 c492 0 653 3 662 12 7 7 12 24 12 38 0 14 -5 31 -12 38
-9 9 -151 12 -576 12 l-564 0 64 69 c129 140 188 280 196 472 4 95 1 130 -17
199 -92 364 -435 599 -803 549z m291 -132 c198 -69 343 -219 402 -417 26 -88
31 -223 10 -310 -82 -339 -421 -546 -755 -460 -115 29 -189 73 -282 165 -90
89 -141 178 -168 295 -71 298 102 616 389 719 98 35 135 41 235 37 70 -3 116
-11 169 -29z"/>
<path d="M10573 3629 c-153 -60 -255 -242 -223 -401 24 -126 96 -218 210 -272
56 -26 76 -30 145 -29 150 1 263 70 327 201 30 61 33 75 33 162 0 82 -4 103
-26 150 -37 78 -88 131 -161 170 -57 31 -72 34 -158 37 -77 3 -105 -1 -147
-18z m204 -94 c157 -47 233 -217 160 -362 -97 -191 -361 -187 -463 7 -28 52
-26 172 3 226 41 78 140 141 224 143 14 1 48 -6 76 -14z"/>
<path d="M10577 3422 c-26 -28 -20 -53 20 -94 l37 -38 -37 -38 c-41 -42 -46
-70 -19 -95 28 -25 48 -21 92 20 l41 36 37 -36 c43 -42 74 -47 96 -15 23 32
20 43 -20 88 l-36 40 36 40 c41 46 44 62 16 90 -29 29 -49 25 -92 -17 l-37
-36 -41 36 c-45 41 -69 46 -93 19z"/>
</g>
</svg>
